<?xml version="1.0" encoding="utf-8"?>
<!-- Svg Vector Icons : http://www.onlinewebfonts.com/icon -->
<!DOCTYPE svg PUBLIC "-//W3C//DTD SVG 1.1//EN" "http://www.w3.org/Graphics/SVG/1.1/DTD/svg11.dtd">
<svg version="1.1" xmlns="http://www.w3.org/2000/svg" xmlns:xlink="http://www.w3.org/1999/xlink" x="0px" y="0px" viewBox="0 0 1000 1000" enable-background="new 0 0 1000 1000" xml:space="preserve">
<metadata> Svg Vector Icons : http://www.onlinewebfonts.com/icon </metadata>
<g><path fill="#B8B6B7" d="M500,10C229.4,10,10,229.4,10,500c0,270.6,219.4,490,490,490c270.6,0,490-219.4,490-490C990,229.4,770.6,10,500,10z M743.5,375.1c0.2,5.4,0.4,10.8,0.4,16.3c0,166-126.4,357.5-357.5,357.5c-71,0-137-20.8-192.6-56.5c9.8,1.2,19.8,1.8,30,1.8c58.9,0,113.1-20.1,156.1-53.8c-55-1-101.4-37.3-117.4-87.3c7.7,1.5,15.5,2.3,23.6,2.3c11.5,0,22.6-1.5,33.1-4.4c-57.5-11.5-100.8-62.3-100.8-123.2c0-0.5,0-1.1,0-1.6c16.9,9.4,36.3,15.1,56.9,15.7c-33.7-22.5-55.9-61-55.9-104.6c0-23,6.2-44.6,17-63.2c62,76,154.6,126.1,259,131.3c-2.1-9.2-3.2-18.8-3.2-28.6c0-69.4,56.3-125.7,125.7-125.7c36.1,0,68.8,15.3,91.7,39.7c28.6-5.6,55.5-16.1,79.8-30.5c-9.4,29.3-29.3,54-55.2,69.5c25.4-3,49.6-9.8,72.2-19.8C789.4,335.2,768.1,357.4,743.5,375.1L743.5,375.1z"/></g>
</svg>